<svg version="1.1" xmlns="http://www.w3.org/2000/svg" style="display: block;" viewBox="0 0 2048 2048" width="1024" height="1024" preserveAspectRatio="none">
<defs>
	<linearGradient id="Gradient1" gradientUnits="userSpaceOnUse" x1="1609.03" y1="855.016" x2="1560.93" y2="869.386">
		<stop class="stop0" offset="0" stop-opacity="1" stop-color="rgb(103,105,128)"/>
		<stop class="stop1" offset="1" stop-opacity="1" stop-color="rgb(94,121,134)"/>
	</linearGradient>
	<linearGradient id="Gradient2" gradientUnits="userSpaceOnUse" x1="1623.12" y1="672.423" x2="1521.12" y2="717.549">
		<stop class="stop0" offset="0" stop-opacity="1" stop-color="rgb(68,79,107)"/>
		<stop class="stop1" offset="1" stop-opacity="1" stop-color="rgb(89,118,128)"/>
	</linearGradient>
	<linearGradient id="Gradient3" gradientUnits="userSpaceOnUse" x1="1375" y1="465.172" x2="1365.8" y2="565.757">
		<stop class="stop0" offset="0" stop-opacity="1" stop-color="rgb(61,78,101)"/>
		<stop class="stop1" offset="1" stop-opacity="1" stop-color="rgb(78,106,123)"/>
	</linearGradient>
	<linearGradient id="Gradient4" gradientUnits="userSpaceOnUse" x1="1077.05" y1="495.572" x2="1110.84" y2="623.365">
		<stop class="stop0" offset="0" stop-opacity="1" stop-color="rgb(55,84,104)"/>
		<stop class="stop1" offset="1" stop-opacity="1" stop-color="rgb(87,115,129)"/>
	</linearGradient>
	<linearGradient id="Gradient5" gradientUnits="userSpaceOnUse" x1="552.099" y1="935.343" x2="1685.5" y2="875.507">
		<stop class="stop0" offset="0" stop-opacity="1" stop-color="rgb(89,133,142)"/>
		<stop class="stop1" offset="1" stop-opacity="1" stop-color="rgb(182,176,189)"/>
	</linearGradient>
</defs>
<path transform="translate(0,0)" fill="rgb(47,51,56)" d="M 276.557 158.522 C 282.889 158.389 289.222 158.29 295.555 158.226 C 340.231 157.95 384.909 158.135 429.581 158.78 L 631.352 159.081 L 1285.6 159.213 L 1637.56 158.973 L 1754.67 158.659 C 1792.96 158.719 1837.66 152.885 1867.05 181.479 C 1895.84 209.483 1891.94 249.787 1892.08 286.757 L 1892.13 367.349 L 1892.11 629.984 L 1892.66 1496.28 L 1892.21 1702.23 L 1892.36 1768.76 C 1892.42 1806.12 1895.6 1838.18 1866.56 1867.09 C 1838.79 1894.74 1804.95 1890.05 1767.75 1890.14 L 716.891 1892.02 L 393.64 1891.04 L 296.058 1890.42 C 274.964 1890.33 253.039 1890.76 232.188 1889.11 C 212.087 1887.52 198.717 1883.38 184.364 1869.22 C 159.906 1845.1 155.198 1826.2 155.545 1792.85 C 155.823 1766.09 156.128 1739.43 156.116 1712.78 L 156.106 1474.81 L 156.315 750.346 L 156.023 406.551 L 155.983 298.902 C 156.064 274.23 155.973 250.11 158.268 225.291 C 160.092 205.565 169.881 195.211 182.811 180.864 C 205.201 156.02 244.576 158.89 276.557 158.522 z"/>
<path transform="translate(0,0)" fill="rgb(61,80,102)" d="M 296.698 242.441 C 334.634 241.611 374.546 242.27 412.634 242.324 L 595.679 242.259 L 1188.5 242.251 L 1559.47 242.457 L 1684.59 242.187 C 1706.87 242.152 1728.96 241.858 1751.24 242.508 C 1818.17 244.462 1806.98 316.106 1806.98 362.245 L 1806.96 485.847 L 1806.93 875.92 L 1806.9 1467.06 L 1806.94 1654.92 C 1806.97 1688.14 1807.05 1721.34 1806.82 1754.56 C 1806.6 1784.71 1788.84 1805.21 1758.25 1806.93 L 765.508 1807.07 L 445.994 1806.95 L 343.725 1807.03 C 326.394 1807.04 302.933 1807.76 286.337 1806.52 C 275.886 1805.68 265.982 1801.5 258.092 1794.6 C 237.814 1776.87 241.532 1751.74 241.125 1727.49 C 240.866 1712.01 241.093 1696.43 241.087 1680.95 L 241.067 1534.03 L 241.103 1069.76 L 241.2 549.5 L 241.165 384.591 C 241.159 356.324 240.688 327.772 241.422 299.515 C 242.298 265.75 263.215 244.825 296.698 242.441 z"/>
<path transform="translate(0,0)" fill="url(#Gradient5)" d="M 1160.49 459.08 C 1134.74 403.222 1216.62 375.481 1229.52 437.637 C 1261.95 440.634 1296.49 447.004 1328.9 451.356 C 1394.24 460.128 1459.62 470.408 1525 478.766 C 1530.3 468.093 1537.11 459.461 1549.03 455.714 C 1558.31 452.869 1568.34 453.816 1576.92 458.348 C 1586.18 463.339 1592.98 471.912 1595.74 482.062 C 1600.89 501.736 1591.47 515.406 1575.33 525.254 L 1632.25 773.837 C 1638.24 800.249 1644.81 826.363 1650.27 852.91 C 1655.24 853.594 1661 854.17 1665.6 856.064 C 1694.15 867.813 1695.89 905.814 1671.01 922.433 C 1663.1 927.794 1653.32 929.617 1644.02 927.464 C 1640.35 926.622 1637.98 925.039 1634.2 924.116 C 1623.98 936.854 1614.58 950.877 1604.57 963.658 C 1590.54 981.558 1577.11 999.185 1563.51 1017.4 L 1563.56 1211.61 C 1563.55 1245.59 1564.07 1279.71 1562.63 1313.65 C 1562.23 1323.06 1554.21 1326.29 1546.13 1326.54 C 1526.19 1327.14 1506.24 1326.91 1486.29 1326.87 L 1379.05 1326.69 C 1368.59 1326.64 1333.78 1325.44 1325.42 1328.39 C 1324.79 1329.29 1322.44 1332.49 1322.66 1333.4 C 1325.69 1345.21 1331.27 1352.99 1328.89 1365.94 C 1324.92 1387.6 1304.44 1400.37 1283.01 1395.11 C 1273.51 1392.79 1265.33 1386.77 1260.3 1378.39 C 1253.95 1367.72 1254.49 1356.74 1257.28 1345.23 C 1249.55 1339.19 1238.12 1331.75 1229.79 1326.02 C 1224.65 1329.55 1125.11 1327.03 1110.49 1327.66 C 1050.45 1365.39 998.317 1366.54 938.274 1327.66 C 882.096 1326.76 825.667 1327.91 769.466 1327.45 C 765.615 1327.42 755.449 1327.17 752.339 1328.07 C 744.376 1330.05 734.977 1327.92 729.073 1329.36 C 720.869 1333.26 724.421 1353.88 723.309 1360.91 C 720.686 1377.49 711.887 1389.57 695.848 1394.63 C 686.727 1397.45 676.847 1396.44 668.488 1391.83 C 658.521 1386.4 650.893 1375.89 648.227 1365.02 C 643.139 1344.26 653.003 1343.12 661.114 1329.63 C 656.574 1328.2 632.52 1328.99 626.418 1328.91 C 600.431 1328.53 572.732 1329.88 546.816 1328.68 C 575.206 1326.87 605.405 1329.03 633.912 1328.21 C 643.168 1327.94 659.098 1329.31 667.551 1327.25 C 660.006 1325.91 624.414 1326.64 614.177 1326.66 C 574.751 1327 535.323 1326.99 495.898 1326.65 C 489.867 1323.66 488.981 1321.75 485.469 1315.97 C 484.649 1298.85 485.594 1281.02 484.826 1263.64 C 483.662 1270.13 483.538 1283.59 483.275 1290.66 C 482.139 1269.44 484.23 1244.45 484.004 1222.85 C 483.636 1187.73 484.298 1152.34 483.048 1117.22 C 482.482 1101.3 484.887 1077.69 482.255 1063.12 C 478.181 1059.83 437.976 1047.3 430.135 1044.85 C 424.644 1051.23 421.222 1055.34 413.112 1058.91 C 403.358 1063.17 392.295 1063.3 382.446 1059.26 C 348.909 1045.19 353.352 999.649 385.979 988.028 C 398.159 983.69 403.855 986.158 414.941 990.499 C 423.616 981.71 431.342 973.834 439.271 964.286 C 453.429 947.236 467.611 926.581 483 910.876 C 482.83 898.465 483.917 885.986 483.991 873.5 L 484.029 764.698 C 483.975 735.122 481.492 697.478 483.251 668.983 C 483.712 669.38 484.086 710.57 484.847 716.406 C 486.038 704.276 481.584 665.624 488.423 658.183 C 495.841 650.112 514.93 652.144 525.087 652.038 C 524.706 636.308 522.23 626.918 532.787 615.489 C 546.51 612.195 563.088 608.991 577.007 606.572 C 575.988 562.331 574.356 567.051 617.76 562.587 C 674.663 556.735 731.688 556.625 788.63 562.35 C 854.221 569.069 934.519 585.343 988.873 624.15 C 1044.88 570.493 1103.67 510.565 1160.49 459.08 z"/>
<path transform="translate(0,0)" fill="rgb(248,248,229)" d="M 577.007 606.572 C 575.988 562.331 574.356 567.051 617.76 562.587 C 674.663 556.735 731.688 556.625 788.63 562.35 C 854.221 569.069 934.519 585.343 988.873 624.15 C 980.905 635.038 964.252 649.942 954.166 659.436 L 907.472 703.573 C 883.015 693 864.205 694.886 851.588 721.001 L 851.452 721.276 C 808.189 713.246 763.334 703.656 720.308 696.252 C 707.261 626.267 619.79 668.182 653.152 718.739 C 634.496 740.966 614.909 762.199 596.196 784.6 C 589.953 790.758 584.19 797.688 578.448 804.34 C 574.802 793.916 577.166 629.76 577.007 606.572 z"/>
<path transform="translate(0,0)" fill="rgb(88,115,134)" d="M 577.007 606.572 C 577.166 629.76 574.802 793.916 578.448 804.34 C 584.19 797.688 589.953 790.758 596.196 784.6 L 597.309 786.241 C 595.521 788.787 595.336 788.744 592.82 790.673 C 592.615 793.775 594.53 795.455 595.582 798.857 L 597.06 799.46 C 603.445 796.704 603.205 791.66 608.012 791.345 C 597.029 805.125 585.384 817.851 574.005 831.262 C 577.477 834.649 576.807 847.297 576.822 852.462 C 577.04 924.886 577.413 997.354 576.744 1069.77 C 576.716 1072.8 575.972 1075.2 574.772 1077.94 L 566.647 1075.09 C 562.597 1076.77 564.315 1075.52 561.516 1079.23 C 560.964 1084.01 560.614 1081.81 562.37 1086.1 C 564.226 1087.26 565.4 1087.96 567.353 1088.93 L 567.148 1089.88 C 557.99 1088.24 537.633 1078.94 525.212 1076.22 C 511.72 1071.33 498.093 1066.8 484.626 1061.86 C 485.993 1121.46 484.01 1181.61 484.744 1241.27 C 484.834 1248.6 484.436 1256.37 484.826 1263.64 C 483.662 1270.13 483.538 1283.59 483.275 1290.66 C 482.139 1269.44 484.23 1244.45 484.004 1222.85 C 483.636 1187.73 484.298 1152.34 483.048 1117.22 C 482.482 1101.3 484.887 1077.69 482.255 1063.12 C 478.181 1059.83 437.976 1047.3 430.135 1044.85 C 424.644 1051.23 421.222 1055.34 413.112 1058.91 C 403.358 1063.17 392.295 1063.3 382.446 1059.26 C 348.909 1045.19 353.352 999.649 385.979 988.028 C 398.159 983.69 403.855 986.158 414.941 990.499 C 423.616 981.71 431.342 973.834 439.271 964.286 C 453.429 947.236 467.611 926.581 483 910.876 C 482.83 898.465 483.917 885.986 483.991 873.5 L 484.029 764.698 C 483.975 735.122 481.492 697.478 483.251 668.983 C 483.712 669.38 484.086 710.57 484.847 716.406 C 486.038 704.276 481.584 665.624 488.423 658.183 C 495.841 650.112 514.93 652.144 525.087 652.038 C 524.706 636.308 522.23 626.918 532.787 615.489 C 546.51 612.195 563.088 608.991 577.007 606.572 z"/>
<path transform="translate(0,0)" fill="rgb(211,210,192)" d="M 577.007 606.572 C 577.166 629.76 574.802 793.916 578.448 804.34 C 571.501 813.235 560.672 824.944 553.268 833.811 C 548.301 839.76 530.318 860.803 525.088 865.077 C 526.136 795.411 525.557 721.792 525.087 652.038 C 524.706 636.308 522.23 626.918 532.787 615.489 C 546.51 612.195 563.088 608.991 577.007 606.572 z"/>
<path transform="translate(0,0)" fill="rgb(211,210,192)" d="M 525.439 893.004 C 526.367 883.053 540.086 870.468 546.542 862.631 C 555.175 852.148 564.54 840.97 574.005 831.262 C 577.477 834.649 576.807 847.297 576.822 852.462 C 577.04 924.886 577.413 997.354 576.744 1069.77 C 576.716 1072.8 575.972 1075.2 574.772 1077.94 L 566.647 1075.09 C 554.283 1070.83 540.781 1066.94 528.55 1062.15 C 525.793 1061.07 526.235 1060.63 525.417 1058.18 C 525.023 1049.84 525.001 1040.74 525.17 1032.38 C 526.103 986.207 523.732 939.064 525.439 893.004 z"/>
<path transform="translate(0,0)" fill="rgb(47,51,56)" d="M 484.847 716.406 C 486.038 704.276 481.584 665.624 488.423 658.183 C 495.841 650.112 514.93 652.144 525.087 652.038 C 525.557 721.792 526.136 795.411 525.088 865.077 C 516.033 877.281 494.938 901.257 484.399 912.481 C 486.63 850.74 484.696 778.949 484.847 716.406 z"/>
<path transform="translate(0,0)" fill="rgb(47,51,56)" d="M 485.009 934.175 C 494.181 921.842 512.381 902.185 522.967 889.867 L 524.361 889.859 L 525.439 893.004 C 523.732 939.064 526.103 986.207 525.17 1032.38 C 525.001 1040.74 525.023 1049.84 525.417 1058.18 L 524.626 1060.53 C 520.598 1061.79 490.799 1049.38 484.685 1047.06 C 485.41 1010.02 484.659 971.474 485.009 934.175 z"/>
<path transform="translate(0,0)" fill="rgb(211,210,192)" d="M 484.626 1061.86 C 498.093 1066.8 511.72 1071.33 525.212 1076.22 C 537.633 1078.94 557.99 1088.24 567.148 1089.88 L 575.881 1093.22 C 579.291 1131.32 575.065 1171.56 577.408 1209.84 C 577.535 1211.9 579.756 1217.35 581.304 1217.31 C 642.357 1215.38 728.334 1203.12 788.612 1217.85 C 781.395 1227.32 753.211 1266.48 745.313 1268.67 L 747.057 1269.95 C 743.655 1276.05 707.589 1319.95 702.024 1325.08 C 689.495 1320.55 679.046 1319.91 667.551 1327.25 C 660.006 1325.91 624.414 1326.64 614.177 1326.66 C 574.751 1327 535.323 1326.99 495.898 1326.65 C 489.867 1323.66 488.981 1321.75 485.469 1315.97 C 484.649 1298.85 485.594 1281.02 484.826 1263.64 C 484.436 1256.37 484.834 1248.6 484.744 1241.27 C 484.01 1181.61 485.993 1121.46 484.626 1061.86 z"/>
<path transform="translate(0,0)" fill="rgb(47,51,56)" d="M 484.626 1061.86 C 498.093 1066.8 511.72 1071.33 525.212 1076.22 L 525.205 1207.12 C 525.186 1221.5 523.067 1280.53 528.97 1288.55 C 536.822 1292.39 561.825 1285.43 571.669 1283.65 C 592.356 1279.83 613.182 1276.8 634.102 1274.57 C 658.234 1271.95 682.453 1270.2 706.71 1269.3 C 719.493 1268.86 732.768 1269.19 745.313 1268.67 L 747.057 1269.95 C 743.655 1276.05 707.589 1319.95 702.024 1325.08 C 689.495 1320.55 679.046 1319.91 667.551 1327.25 C 660.006 1325.91 624.414 1326.64 614.177 1326.66 C 574.751 1327 535.323 1326.99 495.898 1326.65 C 489.867 1323.66 488.981 1321.75 485.469 1315.97 C 484.649 1298.85 485.594 1281.02 484.826 1263.64 C 484.436 1256.37 484.834 1248.6 484.744 1241.27 C 484.01 1181.61 485.993 1121.46 484.626 1061.86 z"/>
<path transform="translate(0,0)" fill="rgb(248,248,229)" d="M 662.78 728.176 C 671.197 731.505 674.251 732.908 683.176 734.341 C 692.041 772.285 699.288 810.07 709.421 847.717 C 677.987 863.684 678.086 895.922 705.652 916.322 C 691.057 967.705 673.337 1024.66 660.333 1075.85 C 646.511 1076.62 639.062 1077.52 629.111 1088.51 C 627.277 1090.57 625.527 1092.7 623.866 1094.9 C 606.952 1089.85 591.272 1083.19 574.772 1077.94 C 575.972 1075.2 576.716 1072.8 576.744 1069.77 C 577.413 997.354 577.04 924.886 576.822 852.462 C 576.807 847.297 577.477 834.649 574.005 831.262 C 585.384 817.851 597.029 805.125 608.012 791.345 C 626.58 772.109 645.074 746.229 662.78 728.176 z"/>
<path transform="translate(0,0)" fill="rgb(47,51,56)" d="M 766.179 1268.96 C 780.271 1252.82 792.69 1234.35 807.238 1217.43 L 808.232 1217.71 C 815.474 1219.67 823.597 1220.93 831.067 1222.18 C 882.818 1230.86 934.716 1247.83 978.484 1277.29 C 986.319 1282.57 1013.67 1303.22 1015.3 1312.61 C 1009.65 1314.52 1012.54 1310.13 1008.28 1313.98 L 1008.08 1315.28 C 1014.68 1317.08 1021.37 1319.34 1028.2 1318.75 C 1028.18 1318.75 1043.29 1314.22 1045.02 1313.64 C 1061.92 1308.25 1078.98 1301.5 1095.96 1296.56 C 1117.48 1290.3 1140.19 1285.4 1162.09 1280.37 C 1166.72 1284.77 1177.79 1290.82 1183.69 1294.91 C 1197.99 1304.82 1216.13 1315.61 1229.79 1326.02 C 1224.65 1329.55 1125.11 1327.03 1110.49 1327.66 C 1050.45 1365.39 998.317 1366.54 938.274 1327.66 C 882.096 1326.76 825.667 1327.91 769.466 1327.45 C 765.615 1327.42 755.449 1327.17 752.339 1328.07 C 741.406 1328.03 730.475 1327.72 719.558 1327.14 C 729.913 1311.9 753.641 1284.36 766.179 1268.96 z"/>
<path transform="translate(0,0)" fill="rgb(211,210,192)" d="M 766.179 1268.96 C 780.271 1252.82 792.69 1234.35 807.238 1217.43 L 808.232 1217.71 C 815.474 1219.67 823.597 1220.93 831.067 1222.18 C 882.818 1230.86 934.716 1247.83 978.484 1277.29 C 986.319 1282.57 1013.67 1303.22 1015.3 1312.61 C 1009.65 1314.52 1012.54 1310.13 1008.28 1313.98 L 1008.08 1315.28 C 1005.03 1314.7 995.282 1311.11 991.919 1310.03 C 977.225 1305.29 962.239 1299.16 947.388 1295 C 888.422 1278.26 827.475 1269.5 766.179 1268.96 z"/>
<path transform="translate(0,0)" fill="rgb(248,248,229)" d="M 575.881 1093.22 C 590.416 1098.37 605.046 1103.24 619.763 1107.84 C 620.109 1120.75 621.911 1130.68 631.992 1140.25 C 639.092 1147.03 648.671 1150.59 658.476 1150.08 C 678.514 1149.14 689.698 1135.56 693.98 1117.07 C 732.78 1116.39 775.501 1110.98 814.711 1109.6 C 828.765 1109.11 844.894 1106.82 858.815 1106.92 C 861.364 1113.35 862.52 1115.94 865.988 1121.95 L 788.612 1217.85 C 728.334 1203.12 642.357 1215.38 581.304 1217.31 C 579.756 1217.35 577.535 1211.9 577.408 1209.84 C 575.065 1171.56 579.291 1131.32 575.881 1093.22 z"/>
<path transform="translate(0,0)" fill="rgb(248,248,229)" d="M 876.281 1131.26 C 896.684 1138.28 907.393 1135.35 923.625 1122.38 C 934.613 1128.72 949.296 1139.33 960.288 1146.63 L 1026.79 1190.38 C 1025.9 1191.78 1024.56 1193.91 1024.52 1195.87 C 1023.6 1234.01 1022.89 1273.93 1024.95 1311.97 C 1025.05 1313.86 1027.32 1317.4 1028.2 1318.75 C 1021.37 1319.34 1014.68 1317.08 1008.08 1315.28 L 1008.28 1313.98 C 1012.54 1310.13 1009.65 1314.52 1015.3 1312.61 C 1013.67 1303.22 986.319 1282.57 978.484 1277.29 C 934.716 1247.83 882.818 1230.86 831.067 1222.18 C 823.597 1220.93 815.474 1219.67 808.232 1217.71 L 807.238 1217.43 C 829.906 1188.43 852.922 1159.71 876.281 1131.26 z"/>
<path transform="translate(0,0)" fill="rgb(47,51,56)" d="M 1563.51 1017.4 L 1563.56 1211.61 C 1563.55 1245.59 1564.07 1279.71 1562.63 1313.65 C 1562.23 1323.06 1554.21 1326.29 1546.13 1326.54 C 1526.19 1327.14 1506.24 1326.91 1486.29 1326.87 L 1379.05 1326.69 C 1368.59 1326.64 1333.78 1325.44 1325.42 1328.39 C 1332.93 1317.28 1362.45 1279.02 1370.21 1270.95 C 1411.41 1272.73 1453.2 1279.45 1493.74 1286.72 C 1499.03 1287.67 1513.59 1291.02 1517.92 1289.22 C 1520.55 1286.71 1521.34 1284.72 1522.11 1281.13 C 1523.76 1274.4 1522.93 1229.53 1522.92 1219.73 L 1522.97 1069.89 C 1526.59 1064.21 1533.5 1056.09 1537.76 1050.46 C 1546.1 1039.43 1554.71 1028.05 1563.51 1017.4 z"/>
<path transform="translate(0,0)" fill="rgb(211,210,192)" d="M 1469.89 1139.1 C 1485.2 1116.8 1505.08 1092.58 1522 1071.11 L 1521.94 1209.68 C 1521.94 1230.62 1521.02 1260.69 1522.11 1281.13 C 1521.34 1284.72 1520.55 1286.71 1517.92 1289.22 C 1513.59 1291.02 1499.03 1287.67 1493.74 1286.72 C 1453.2 1279.45 1411.41 1272.73 1370.21 1270.95 C 1380.16 1254.53 1400.17 1229.56 1412.45 1214.39 C 1429.87 1189.68 1451.27 1163.4 1469.89 1139.1 z"/>
<path transform="translate(0,0)" fill="rgb(248,248,229)" d="M 1469.89 1139.1 C 1472.47 1144.95 1472.09 1205.97 1469.65 1212.6 C 1468.66 1215.29 1467.19 1216.97 1464.53 1218.13 C 1461.3 1219.55 1419.22 1214.57 1412.45 1214.39 C 1429.87 1189.68 1451.27 1163.4 1469.89 1139.1 z"/>
<path transform="translate(0,0)" fill="rgb(235,235,218)" d="M 1026.79 1190.38 C 1054.52 1208.93 1089.84 1231.26 1116.2 1250.62 C 1122.51 1253.52 1157.93 1276.04 1162.09 1280.37 C 1140.19 1285.4 1117.48 1290.3 1095.96 1296.56 C 1078.98 1301.5 1061.92 1308.25 1045.02 1313.64 C 1043.29 1314.22 1028.18 1318.75 1028.2 1318.75 C 1027.32 1317.4 1025.05 1313.86 1024.95 1311.97 C 1022.89 1273.93 1023.6 1234.01 1024.52 1195.87 C 1024.56 1193.91 1025.9 1191.78 1026.79 1190.38 z"/>
<path transform="translate(0,0)" fill="rgb(211,210,192)" d="M 1116.2 1250.62 C 1122.51 1253.52 1157.93 1276.04 1162.09 1280.37 C 1140.19 1285.4 1117.48 1290.3 1095.96 1296.56 C 1078.98 1301.5 1061.92 1308.25 1045.02 1313.64 C 1040.47 1310.09 1035.58 1311.41 1029.85 1311.95 C 1038 1306.39 1045.61 1295.83 1054.02 1289.08 C 1073.69 1273.27 1094.08 1262.19 1116.2 1250.62 z"/>
<path transform="translate(0,0)" fill="rgb(235,235,218)" d="M 1045.03 965.114 L 1140.53 1001.9 C 1158.11 1008.61 1180.13 1016.01 1197.01 1023.53 C 1198.82 1052.54 1206.21 1060.27 1234.56 1066.01 L 1260.53 1216.39 C 1262.12 1226.98 1269.53 1260.32 1269.26 1268.83 C 1271.83 1279.6 1277.33 1313.33 1278.55 1324.55 C 1273.7 1326.53 1269.07 1328.53 1264.07 1330.09 C 1241.83 1319.4 1204.79 1291.3 1182.91 1277.38 C 1177.78 1276.1 1139.04 1249.47 1133.06 1244.8 C 1125.54 1240.16 1117.72 1234.99 1110.47 1229.95 C 1080.91 1209.37 1049.44 1190.48 1020.14 1169.68 C 1004.99 1161.13 987.734 1148.48 972.945 1138.7 C 958.969 1129.46 943.789 1119.92 930.38 1110.13 C 933.211 1092.33 932.487 1088.79 923.598 1073.18 C 939.485 1052.94 954.694 1031.37 970.577 1011.02 C 978.972 1000.26 986.584 988.809 995.85 978.757 C 1007.74 983.32 1011.7 983.736 1024.08 981.551 C 1035.01 977.488 1038.21 974.966 1045.03 965.114 z"/>
<path transform="translate(0,0)" fill="rgb(248,248,229)" d="M 995.85 978.757 C 1007.74 983.32 1011.7 983.736 1024.08 981.551 L 1023.81 1098.45 C 1023.8 1110.02 1025.04 1163.86 1021.34 1169.1 L 1020.14 1169.68 C 1004.99 1161.13 987.734 1148.48 972.945 1138.7 C 958.969 1129.46 943.789 1119.92 930.38 1110.13 C 933.211 1092.33 932.487 1088.79 923.598 1073.18 C 939.485 1052.94 954.694 1031.37 970.577 1011.02 C 978.972 1000.26 986.584 988.809 995.85 978.757 z"/>
<path transform="translate(0,0)" fill="rgb(211,210,192)" d="M 1260.53 1216.39 C 1262.12 1226.98 1269.53 1260.32 1269.26 1268.83 C 1271.83 1279.6 1277.33 1313.33 1278.55 1324.55 C 1273.7 1326.53 1269.07 1328.53 1264.07 1330.09 C 1241.83 1319.4 1204.79 1291.3 1182.91 1277.38 C 1177.78 1276.1 1139.04 1249.47 1133.06 1244.8 C 1138.82 1243.3 1145.85 1240.77 1151.52 1238.77 C 1186.97 1226.24 1223.16 1220.56 1260.53 1216.39 z"/>
<path transform="translate(0,0)" fill="rgb(47,51,56)" d="M 1269.26 1268.83 C 1271.83 1279.6 1277.33 1313.33 1278.55 1324.55 C 1273.7 1326.53 1269.07 1328.53 1264.07 1330.09 C 1241.83 1319.4 1204.79 1291.3 1182.91 1277.38 C 1203.24 1272.55 1248.55 1269.97 1269.26 1268.83 z"/>
<path transform="translate(0,0)" fill="rgb(248,248,229)" d="M 1444.95 901.841 C 1461.45 899.664 1502.58 901.237 1521.94 900.868 L 1522.19 993.611 C 1522.2 1003.7 1521.47 1030.27 1522.85 1038.39 L 1523.04 1046.35 C 1513.49 1055.57 1494.49 1085.64 1485 1096.45 C 1482.06 1099.8 1477.26 1107.54 1474.08 1110.2 C 1449.06 1144.62 1421.79 1178.76 1396.07 1212.79 C 1382.09 1230.85 1366.31 1250.91 1352.77 1269.03 L 1327.51 1268.84 C 1317.65 1267.26 1293.85 1268.05 1283.32 1268.19 C 1280.48 1250.21 1277.47 1232.25 1274.31 1214.32 C 1271.44 1202.83 1268.31 1181.23 1266.11 1168.63 C 1260.22 1133.64 1254.14 1098.69 1247.88 1063.76 C 1255.01 1060 1257.16 1058.27 1262.66 1052.79 C 1282.26 1063.87 1302.15 1074.43 1322.3 1084.46 C 1321.06 1093.84 1320.03 1099.29 1322.94 1108.65 C 1325.8 1117.85 1332.29 1125.49 1340.9 1129.81 C 1350.54 1134.64 1361.22 1134.88 1371.35 1131.65 C 1398.59 1122.96 1403.93 1083.83 1381.73 1066.94 C 1377.72 1063.89 1373.21 1062.14 1368.61 1060.17 C 1374.68 1020.25 1379.79 974.781 1384.22 934.472 C 1405.99 930.435 1413.41 923.418 1419.51 902.041 L 1444.95 901.841 z"/>
<path transform="translate(0,0)" fill="rgb(211,210,192)" d="M 1444.95 901.841 C 1461.45 899.664 1502.58 901.237 1521.94 900.868 L 1522.19 993.611 C 1522.2 1003.7 1521.47 1030.27 1522.85 1038.39 L 1523.04 1046.35 C 1513.49 1055.57 1494.49 1085.64 1485 1096.45 C 1482.06 1099.8 1477.26 1107.54 1474.08 1110.2 C 1469.9 1104.75 1471.18 1042.06 1471.17 1030.15 L 1471.11 901.648 C 1462.52 901.56 1453.7 901.914 1444.95 901.841 z"/>
<path transform="translate(0,0)" fill="rgb(211,210,192)" d="M 1274.31 1214.32 C 1290.96 1213.37 1307.13 1211.75 1323.95 1211.18 C 1348.56 1210.34 1371.55 1211.52 1396.07 1212.79 C 1382.09 1230.85 1366.31 1250.91 1352.77 1269.03 L 1327.51 1268.84 C 1317.65 1267.26 1293.85 1268.05 1283.32 1268.19 C 1280.48 1250.21 1277.47 1232.25 1274.31 1214.32 z"/>
<path transform="translate(0,0)" fill="rgb(235,235,218)" d="M 1169.79 469.17 C 1174.87 472.253 1177.8 473.33 1183.22 475.479 C 1179.84 508.497 1178.96 544.203 1175.26 576.389 C 1173.43 608.667 1170.92 641.084 1168.36 673.322 C 1166.41 697.989 1165.28 723.938 1162.88 748.442 C 1145.08 754.419 1140.6 757.764 1130.94 773.789 C 1102.38 766.898 1073.08 762.306 1044.25 756.635 C 1039.16 755.634 1026.45 754.072 1022.28 752.55 C 1012.91 751.496 997.463 748.131 987.764 746.385 L 922.374 734.922 C 922.138 725.554 920.636 721.728 917.299 713.344 C 934.834 695.639 954.437 678.217 972.154 660.545 C 980.659 652.061 994.265 640.554 1001.3 631.318 C 1006.48 625.662 1013.75 619.118 1019.45 613.89 C 1070.57 567.017 1118.52 515.76 1169.79 469.17 z"/>
<path transform="translate(0,0)" fill="url(#Gradient4)" d="M 1169.79 469.17 C 1174.87 472.253 1177.8 473.33 1183.22 475.479 C 1179.84 508.497 1178.96 544.203 1175.26 576.389 C 1124.11 589.756 1060.29 609.715 1026.15 652.635 C 1025.88 649.773 1026.14 649.685 1025.1 647.158 C 1023.54 647.334 1021.62 650.724 1021 652.087 C 1015.57 647.169 1007.98 637.734 1001.3 631.318 C 1006.48 625.662 1013.75 619.118 1019.45 613.89 C 1070.57 567.017 1118.52 515.76 1169.79 469.17 z"/>
<path transform="translate(0,0)" fill="rgb(248,248,229)" d="M 1001.3 631.318 C 1007.98 637.734 1015.57 647.169 1021 652.087 C 1022.02 654.234 1023.49 657.443 1023.54 660.603 C 1023.95 690.549 1024.54 721.239 1023.62 751.09 C 1023.6 751.911 1023.01 752.086 1022.28 752.55 C 1012.91 751.496 997.463 748.131 987.764 746.385 L 922.374 734.922 C 922.138 725.554 920.636 721.728 917.299 713.344 C 934.834 695.639 954.437 678.217 972.154 660.545 C 980.659 652.061 994.265 640.554 1001.3 631.318 z"/>
<path transform="translate(0,0)" fill="url(#Gradient3)" d="M 1227.99 450.647 L 1417.18 477.512 L 1487.8 487.222 C 1497.76 488.654 1512.77 490.377 1521.99 492.427 C 1523.91 500.081 1524.96 503.098 1528.01 510.392 C 1513.18 523.186 1498.46 536.103 1483.84 549.14 C 1480.34 552.232 1466.03 565.237 1463.2 567.021 L 1371.25 647.149 C 1358.45 639.178 1347.97 636.606 1333.67 642.489 C 1316.84 614.949 1297.95 588.539 1280.7 560.21 C 1274.02 552.187 1263.87 535.662 1257.93 526.51 C 1245.14 506.473 1232.07 486.615 1218.72 466.941 C 1221.78 461.604 1225.09 456.037 1227.99 450.647 z"/>
<path transform="translate(0,0)" fill="rgb(248,248,229)" d="M 1280.7 560.21 C 1331.96 557.347 1412.99 557.567 1463.2 567.021 L 1371.25 647.149 C 1358.45 639.178 1347.97 636.606 1333.67 642.489 C 1316.84 614.949 1297.95 588.539 1280.7 560.21 z"/>
<path transform="translate(0,0)" fill="url(#Gradient2)" d="M 1471.24 578.623 C 1485.19 562.607 1519.41 536.229 1536.68 520.057 C 1547.45 526.405 1550.04 527.158 1562.4 529.395 C 1573.63 584.528 1588.05 642.154 1600.79 697.135 C 1612.76 748.806 1624.25 804.568 1637.76 855.749 C 1633.16 858.834 1629.6 861.227 1624.67 863.883 C 1612.27 854.602 1599.67 845.58 1586.89 836.824 C 1584.07 834.874 1566.51 822.694 1564.51 820.649 C 1551.4 811.948 1535.98 800.194 1522.97 790.842 L 1523.05 652.193 C 1523.19 644.525 1523.63 633.765 1522.21 626.526 C 1520.05 614.62 1506.09 613.575 1496.27 611.173 C 1488.45 609.26 1479.84 607.621 1471.88 606.537 C 1471.87 597.228 1471.66 587.921 1471.24 578.623 z"/>
<path transform="translate(0,0)" fill="rgb(47,51,56)" d="M 1523.05 652.193 C 1534.34 651.946 1550.61 649.88 1559.28 656.731 C 1563.72 665.859 1562.79 678.242 1563 688.22 C 1563.91 732.251 1561.61 776.722 1564.51 820.649 C 1551.4 811.948 1535.98 800.194 1522.97 790.842 L 1523.05 652.193 z"/>
<path transform="translate(0,0)" fill="rgb(235,235,218)" d="M 1196.5 475.683 L 1207.06 473.124 C 1225.46 502.793 1245.81 532.028 1264.53 561.693 C 1269.72 567.504 1273.34 573.956 1277.51 580.487 C 1292 603.237 1306.22 626.344 1321.86 648.325 C 1310.3 665.581 1309.45 669.253 1311.31 690.095 C 1277.56 711.839 1230.61 741.539 1195.82 760.97 C 1188.94 755.549 1184.96 753.113 1176.8 749.429 C 1178.27 706.103 1183.52 662.028 1185.87 618.662 C 1186.68 603.586 1188.93 588.586 1189.42 573.424 C 1192.97 545.236 1194.4 505.056 1196.5 475.683 z"/>
<path transform="translate(0,0)" fill="rgb(88,115,134)" d="M 1196.5 475.683 L 1207.06 473.124 C 1225.46 502.793 1245.81 532.028 1264.53 561.693 C 1241.13 565.247 1211.35 567.432 1189.42 573.424 C 1192.97 545.236 1194.4 505.056 1196.5 475.683 z"/>
<path transform="translate(0,0)" fill="rgb(248,248,229)" d="M 739.656 917.123 L 741.39 917.065 C 748.313 920.808 850.187 1055.66 866.253 1073 C 860.962 1080.39 859.849 1084.4 857.598 1092.85 C 838.382 1093.73 817.613 1095.52 798.245 1096.82 C 763.834 1098.69 728.116 1101.71 693.597 1104.12 C 687.661 1090.36 685.337 1087.95 674.355 1078.55 C 678.095 1066.48 680.925 1052.83 684.533 1040.33 C 696.237 1000.56 707.574 960.681 718.54 920.699 C 727.511 920.018 730.972 919.346 739.656 917.123 z"/>
<path transform="translate(0,0)" fill="rgb(248,248,229)" d="M 862.068 764.685 C 863.637 764.883 862.885 764.681 864.535 765.432 C 878.568 771.818 884.519 772.957 899.003 769.239 C 910.003 785.64 922.114 807.351 932.31 824.514 L 987.88 917.111 C 985.05 921.249 981.568 927.749 978.981 932.289 L 901.237 914.736 C 856.193 904.437 806.534 892.914 761.419 883.997 C 759.914 875.709 758.662 870.673 756.163 862.408 C 779.788 838.685 806.424 816.485 830.636 793.189 C 840.485 783.713 851.595 773.256 862.068 764.685 z"/>
<path transform="translate(0,0)" fill="rgb(248,248,229)" d="M 921.199 748.365 C 932.274 749.683 947.767 753.206 959.266 755.363 C 980.765 759.314 1002.29 763.151 1023.83 766.876 C 1059.04 773.838 1094.34 780.312 1129.73 786.298 C 1130.94 795.552 1131.18 798.972 1135.74 807.396 C 1116.15 829.655 1094.17 851.87 1073.53 873.349 C 1062.64 884.686 1045.05 904.272 1034.14 913.803 L 1024.31 909.543 C 1013.24 907.545 1010.75 907.907 999.751 910.112 C 970.034 861.049 940.941 810.71 910.793 762.025 L 921.199 748.365 z"/>
<path transform="translate(0,0)" fill="rgb(235,235,218)" d="M 1023.83 766.876 C 1059.04 773.838 1094.34 780.312 1129.73 786.298 C 1130.94 795.552 1131.18 798.972 1135.74 807.396 C 1116.15 829.655 1094.17 851.87 1073.53 873.349 C 1062.64 884.686 1045.05 904.272 1034.14 913.803 L 1024.31 909.543 C 1024.62 908.792 1023.85 778.681 1023.83 766.876 z"/>
<path transform="translate(0,0)" fill="rgb(248,248,229)" d="M 759.119 896.826 C 778.814 902.263 973.486 943.679 975.064 945.673 C 977.179 948.346 979.322 961.404 984.66 968.654 L 985.478 969.747 C 969.652 989.524 954.084 1009.51 938.776 1029.69 C 929.828 1041.33 921.035 1053.1 912.4 1064.99 C 900.27 1057.44 888.173 1059.27 875.878 1064.95 C 863.344 1047.4 847.943 1028.52 834.472 1011.45 L 778.232 939.712 C 769.71 928.849 760.337 918.306 752.329 907.189 C 754.639 902.99 756.333 900.677 759.119 896.826 z"/>
<path transform="translate(0,0)" fill="rgb(248,248,229)" d="M 1374.57 702.651 C 1403.75 726.023 1441.73 748.387 1471.96 771.928 C 1485.21 780.129 1508.76 798.368 1521.73 808.076 C 1523.08 833.039 1521.78 861.404 1521.92 886.846 C 1506.21 886.924 1486.84 886.541 1471.47 887.762 C 1454.16 887.996 1436.86 888.326 1419.55 888.752 C 1411.4 867.985 1404.61 863.13 1383.39 858.404 C 1376.55 812.634 1365.18 758.054 1360.41 712.845 C 1366.33 709.308 1369.21 706.956 1374.57 702.651 z"/>
<path transform="translate(0,0)" fill="rgb(211,210,192)" d="M 1471.96 771.928 C 1485.21 780.129 1508.76 798.368 1521.73 808.076 C 1523.08 833.039 1521.78 861.404 1521.92 886.846 C 1506.21 886.924 1486.84 886.541 1471.47 887.762 C 1470.63 855.546 1469.91 803.855 1471.96 771.928 z"/>
<path transform="translate(0,0)" fill="rgb(235,235,218)" d="M 1145.5 818.612 C 1147.08 818.911 1147.96 819.06 1149.45 819.779 C 1156.31 823.1 1162.78 823.761 1170.26 824.132 C 1175.15 844.861 1181.66 866.366 1187.46 886.953 L 1218.12 995.041 C 1210.12 1000.26 1207.4 1003.47 1201.08 1010.45 C 1181.81 1002.45 1161.73 995.883 1142.74 987.695 L 1085.06 965.772 C 1073.89 961.431 1061.7 956.031 1050.45 952.522 C 1050.36 939.355 1050.35 935.579 1044.61 924.268 C 1050.29 916.974 1057.75 910.02 1064.17 903.22 L 1108.65 856.547 C 1119.95 844.887 1133.51 828.635 1145.5 818.612 z"/>
<path transform="translate(0,0)" fill="rgb(248,248,229)" d="M 1380.06 657.296 C 1388.57 648.33 1413.07 628.26 1423.44 619.415 C 1435.36 609.257 1459.93 586.302 1471.24 578.623 C 1471.66 587.921 1471.87 597.228 1471.88 606.537 C 1479.84 607.621 1488.45 609.26 1496.27 611.173 C 1506.09 613.575 1520.05 614.62 1522.21 626.526 L 1521.82 789.839 C 1513.89 784.371 1475.75 759.612 1470.78 753.812 C 1442.21 735.055 1410.98 711.557 1382.09 691.531 C 1385.78 679.395 1384.33 668.86 1380.06 657.296 z"/>
<path transform="translate(0,0)" fill="rgb(211,210,192)" d="M 1471.88 606.537 C 1479.84 607.621 1488.45 609.26 1496.27 611.173 C 1506.09 613.575 1520.05 614.62 1522.21 626.526 L 1521.82 789.839 C 1513.89 784.371 1475.75 759.612 1470.78 753.812 C 1471.52 743.501 1470.93 730.395 1471.19 719.784 C 1472.11 683.322 1469.47 642.525 1471.88 606.537 z"/>
<path transform="translate(0,0)" fill="rgb(235,235,218)" d="M 1197.3 808.868 C 1203.47 811.433 1210.52 815.448 1216.54 818.517 C 1260.19 840.748 1303.2 863.907 1347.27 885.335 C 1345.23 899.702 1344.64 902.884 1351.4 915.404 C 1337.15 926.16 1315.51 947.022 1301.47 959.762 C 1288.32 971.201 1272.87 986.438 1259.96 998.5 C 1248.47 993.063 1243.65 990.858 1230.98 991.712 C 1216.68 937.24 1199.36 875.405 1182.64 821.524 C 1187.56 817.343 1192.45 813.125 1197.3 808.868 z"/>
<path transform="translate(0,0)" fill="rgb(235,235,218)" d="M 1318.19 701.966 C 1319.49 702.352 1318.73 702.023 1320.16 703.092 C 1330.51 710.838 1333.87 712.775 1346.42 713.24 C 1353.47 763.282 1361.91 811.241 1369.98 860.97 C 1362.6 864.55 1357.93 868.566 1351.73 873.782 C 1332.18 864.364 1307.32 850.28 1287.25 839.952 C 1259.53 825.164 1231.52 811.549 1203.88 796.92 C 1204.02 787.738 1204.07 781.656 1202.93 772.627 C 1241.79 749.804 1280.22 726.246 1318.19 701.966 z"/>
<path transform="translate(0,0)" fill="rgb(248,248,229)" d="M 717.446 709.757 C 760.599 718.446 806.468 725.596 848.713 734.589 C 849.305 742.383 850.95 747.275 853.993 754.239 C 832.616 773.098 811.494 792.243 790.631 811.669 C 775.629 825.052 760.979 840.024 745.875 852.934 C 735.727 846.912 733.702 846.459 721.967 845.163 C 712.875 808.286 706.105 767.412 696.108 731.528 C 709.56 725.038 710.581 723.151 717.446 709.757 z"/>
<path transform="translate(0,0)" fill="rgb(235,235,218)" d="M 1359.11 925.747 C 1363.14 928.103 1366.95 929.865 1371.15 931.875 C 1364.96 973.16 1361.59 1017.8 1355.98 1059.06 C 1342.4 1061.97 1339.36 1063.67 1329.26 1072.43 C 1320.01 1068.12 1307.79 1061.19 1298.56 1056.28 C 1289.63 1051.02 1280.29 1046.49 1270.62 1042.75 C 1271.8 1030.4 1272.51 1021.72 1268.75 1009.74 C 1288.67 989.864 1312.33 970.676 1332.46 950.501 C 1340.81 942.138 1350.65 934.867 1359.11 925.747 z"/>
<path transform="translate(0,0)" fill="rgb(47,51,56)" d="M 1543.78 899.906 C 1562.01 897.812 1596.22 897.746 1614.73 897.679 C 1617.69 904.887 1619.53 908.121 1624.8 914.288 L 1590.16 959.807 C 1582.07 970.606 1572.62 984.067 1563.56 994.016 C 1559.74 999.872 1527.09 1043.12 1523.04 1046.35 L 1522.85 1038.39 C 1524.53 995.853 1523.03 943.391 1522.97 900.23 L 1543.78 899.906 z"/>
<path transform="translate(0,0)" fill="rgb(88,115,134)" d="M 1543.78 899.906 C 1562.01 897.812 1596.22 897.746 1614.73 897.679 C 1617.69 904.887 1619.53 908.121 1624.8 914.288 L 1590.16 959.807 C 1582.07 970.606 1572.62 984.067 1563.56 994.016 C 1562.93 990.009 1563.29 983.162 1563.37 978.969 C 1563.87 952.523 1562.59 925.999 1563.32 899.568 C 1555.63 900.123 1551.42 900.415 1543.78 899.906 z"/>
<path transform="translate(0,0)" fill="rgb(47,51,56)" d="M 1522.78 808.087 L 1563.42 836.599 C 1571.41 842.006 1611.39 869.363 1616.42 874.603 C 1616.97 878.657 1616.84 878.849 1615.68 882.867 C 1612.17 885.942 1561.95 886.174 1554.46 885.85 C 1543.94 885.999 1533.42 886.404 1522.92 887.063 C 1522.57 860.773 1523.45 834.527 1522.78 808.087 z"/>
<path transform="translate(0,0)" fill="url(#Gradient1)" d="M 1563.42 836.599 C 1571.41 842.006 1611.39 869.363 1616.42 874.603 C 1616.97 878.657 1616.84 878.849 1615.68 882.867 C 1612.17 885.942 1561.95 886.174 1554.46 885.85 C 1557.74 885.332 1559.52 884.944 1562.76 884.118 C 1563.9 880.06 1563.42 843.706 1563.42 836.599 z"/>
<path transform="translate(0,0)" fill="rgb(47,51,56)" d="M 1327.51 1268.84 L 1352.77 1269.03 C 1341.51 1286.28 1322.13 1309.71 1309.14 1326.17 C 1302.6 1321.86 1299.83 1322.09 1292.13 1321.53 C 1289.71 1304.1 1286.62 1286.52 1284.08 1269 C 1298.56 1269.07 1313.04 1269.01 1327.51 1268.84 z"/>
</svg>